<svg version="1.1" id="Layer_1" xmlns="http://www.w3.org/2000/svg" xmlns:xlink="http://www.w3.org/1999/xlink" x="0px" y="0px"
	 width="100%" viewBox="0 0 320 225" enable-background="new 0 0 320 225" xml:space="preserve">
<path fill="#C51A1F" opacity="1.000000" stroke="none" 
	d="
M240.000000,226.000000 
	C187.979111,226.000000 135.958206,226.000000 83.564690,225.571350 
	C81.517105,224.756882 79.859604,224.158249 78.164398,224.019119 
	C65.194023,222.954605 52.110291,222.684738 39.274216,220.754929 
	C28.890932,219.193878 19.373661,214.423126 13.646072,204.956680 
	C6.261912,192.752289 3.675607,179.098312 3.624906,164.993759 
	C104.867355,164.997101 205.651611,164.986801 306.435822,165.041931 
	C310.568604,165.044189 314.701050,165.661209 318.901794,166.432007 
	C318.304535,172.397919 318.039520,178.007233 316.906464,183.435333 
	C311.036469,211.556885 295.882660,222.569855 267.223358,223.017853 
	C258.963623,223.146942 250.706665,223.605850 242.458145,224.081818 
	C241.604706,224.131073 240.817795,225.332947 240.000000,226.000000 
z"/>
<path fill="#CD1F21" opacity="1.000000" stroke="none" 
	d="
M318.833649,165.991806 
	C314.701050,165.661209 310.568604,165.044189 306.435822,165.041931 
	C205.651611,164.986801 104.867355,164.997101 3.564537,164.573380 
	C2.363976,162.434067 1.681989,160.717041 1.000000,159.000000 
	C1.000000,148.645767 1.000000,138.291550 1.468657,127.468658 
	C43.933849,127.000320 85.930382,127.000641 128.016312,127.462090 
	C128.105698,136.585968 128.105698,145.248718 128.105698,154.599319 
	C130.718369,153.347885 132.354721,152.607513 133.952728,151.791977 
	C150.873184,143.156570 167.787521,134.509186 185.106232,126.035309 
	C187.966034,126.470322 190.422913,126.963295 192.880310,126.966003 
	C235.586838,127.013084 278.293427,126.999977 321.000000,127.000000 
	C321.000000,138.687561 321.000000,150.375122 320.656433,162.324448 
	C319.819824,163.721405 319.326752,164.856613 318.833649,165.991806 
z"/>
<path fill="#E22B26" opacity="1.000000" stroke="none" 
	d="
M80.000000,1.000000 
	C133.687561,1.000000 187.375122,1.000000 241.382355,1.421278 
	C242.545944,2.222485 243.372223,2.885848 244.236420,2.939566 
	C256.049194,3.673847 267.911163,3.894051 279.673218,5.098578 
	C296.023376,6.772964 310.268402,17.399731 313.645477,34.972527 
	C218.656021,34.986824 124.143066,34.996346 29.630112,34.994125 
	C22.475822,34.993958 15.321532,34.910286 8.132631,34.450287 
	C15.097703,11.838369 31.377443,5.102231 50.907948,4.020690 
	C59.810173,3.527712 68.730820,3.369953 77.634773,2.901582 
	C78.454254,2.858475 79.213036,1.661292 80.000000,1.000000 
z"/>
<path fill="#D22222" opacity="1.000000" stroke="none" 
	d="
M127.926918,127.000961 
	C85.930382,127.000641 43.933849,127.000320 1.468657,127.000000 
	C1.000000,119.312424 1.000000,111.624847 1.419897,103.499878 
	C4.967575,103.374969 8.094928,103.954399 11.223204,103.959419 
	C50.123756,104.021919 89.024445,104.000923 128.014206,104.462479 
	C128.044510,112.282692 127.985718,119.641823 127.926918,127.000961 
z"/>
<path fill="#D62423" opacity="1.000000" stroke="none" 
	d="
M127.925095,104.001404 
	C89.024445,104.000923 50.123756,104.021919 11.223204,103.959419 
	C8.094928,103.954399 4.967575,103.374969 1.419897,103.031235 
	C1.000000,96.978844 1.000000,90.957695 1.468645,84.464417 
	C43.932758,83.995110 85.928230,83.997917 128.012314,84.461754 
	C128.042313,91.282318 127.983696,97.641861 127.925095,104.001404 
z"/>
<path fill="#D22222" opacity="1.000000" stroke="none" 
	d="
M321.000000,126.531601 
	C278.293427,126.999977 235.586838,127.013084 192.880310,126.966003 
	C190.422913,126.963295 187.966034,126.470322 185.311752,125.740700 
	C191.067276,122.142258 197.019943,119.008629 203.320038,115.834656 
	C206.905319,114.062233 210.143188,112.330162 213.759171,110.395836 
	C212.628159,109.591393 211.867310,109.050217 211.564423,108.362450 
	C214.959000,107.810616 217.894745,107.060265 220.832321,107.052933 
	C254.221375,106.969727 287.610718,107.000046 321.000000,107.000000 
	C321.000000,113.354401 321.000000,119.708794 321.000000,126.531601 
z"/>
<path fill="#DA2724" opacity="1.000000" stroke="none" 
	d="
M321.000000,66.000000 
	C321.000000,66.750000 321.000000,67.500000 320.531342,68.622307 
	C261.624664,68.996414 203.186600,68.977562 144.748734,69.078842 
	C142.513412,69.082718 140.280106,70.245117 137.697296,70.846909 
	C134.516632,69.154320 131.684509,67.482468 128.509171,65.608009 
	C128.257187,67.498886 128.090515,68.749634 127.459953,70.000275 
	C84.997383,70.000107 42.998692,70.000053 1.000000,70.000000 
	C1.000000,69.555664 1.000000,69.111328 1.378800,68.520462 
	C2.227350,66.582535 2.697099,64.791130 3.624669,62.999786 
	C108.999504,62.999821 213.916519,62.999790 318.989136,63.311764 
	C319.763153,64.415848 320.381561,65.207924 321.000000,66.000000 
z"/>
<path fill="#D82624" opacity="1.000000" stroke="none" 
	d="
M1.000000,70.464645 
	C42.998692,70.000053 84.997383,70.000107 127.548965,70.457565 
	C128.042465,75.276894 127.983078,79.638809 127.923691,84.000732 
	C85.928230,83.997917 43.932758,83.995110 1.468645,83.996147 
	C1.000000,79.643097 1.000000,75.286201 1.000000,70.464645 
z"/>
<path fill="#D82523" opacity="1.000000" stroke="none" 
	d="
M321.000000,77.000000 
	C321.000000,80.030594 321.000000,83.061188 320.531342,86.545891 
	C273.777130,87.000031 227.491486,86.968391 181.206223,87.089905 
	C178.790131,87.096245 176.377426,88.406052 173.629425,88.996826 
	C167.182510,85.633720 161.069321,82.382812 155.187286,78.809311 
	C157.767517,77.991180 160.115952,77.066719 162.465820,77.063072 
	C215.310455,76.980972 268.155243,77.000023 321.000000,77.000000 
z"/>
<path fill="#D62423" opacity="1.000000" stroke="none" 
	d="
M173.963150,89.109016 
	C176.377426,88.406052 178.790131,87.096245 181.206223,87.089905 
	C227.491486,86.968391 273.777130,87.000031 320.531342,87.000000 
	C321.000000,90.361290 321.000000,93.722572 320.531342,97.541931 
	C280.966492,98.000061 241.870239,97.967415 202.774292,98.066650 
	C199.867798,98.074028 196.963684,99.027733 193.762787,99.395264 
	C186.965775,95.869026 180.464462,92.489021 173.963150,89.109016 
z"/>
<path fill="#D92624" opacity="1.000000" stroke="none" 
	d="
M321.000000,76.555832 
	C268.155243,77.000023 215.310455,76.980972 162.465820,77.063072 
	C160.115952,77.066719 157.767517,77.991180 154.828918,78.749512 
	C150.151077,77.015450 146.062744,75.018616 141.818329,72.774811 
	C141.111649,72.356514 140.561035,72.185188 139.875336,71.728027 
	C139.143280,71.352669 138.546341,71.263153 137.902054,71.074615 
	C137.854706,70.975594 138.045853,70.867653 138.045853,70.867653 
	C140.280106,70.245117 142.513412,69.082718 144.748734,69.078842 
	C203.186600,68.977562 261.624664,68.996414 320.531342,68.997307 
	C321.000000,71.370560 321.000000,73.741112 321.000000,76.555832 
z"/>
<path fill="#D42323" opacity="1.000000" stroke="none" 
	d="
M194.058472,99.541504 
	C196.963684,99.027733 199.867798,98.074028 202.774292,98.066650 
	C241.870239,97.967415 280.966492,98.000061 320.531342,98.000000 
	C321.000000,100.700012 321.000000,103.400032 321.000000,106.550018 
	C287.610718,107.000046 254.221375,106.969727 220.832321,107.052933 
	C217.894745,107.060265 214.959000,107.810616 211.275146,108.194824 
	C205.038071,105.296356 199.548264,102.418922 194.058472,99.541504 
z"/>
<path fill="#000000" opacity="1.000000" stroke="none" 
	d="
M1.000000,159.468658 
	C1.681989,160.717041 2.363976,162.434067 3.106333,164.571487 
	C3.675607,179.098312 6.261912,192.752289 13.646072,204.956680 
	C19.373661,214.423126 28.890932,219.193878 39.274216,220.754929 
	C52.110291,222.684738 65.194023,222.954605 78.164398,224.019119 
	C79.859604,224.158249 81.517105,224.756882 83.096031,225.571350 
	C55.747158,226.000000 28.494314,226.000000 1.000000,226.000000 
	C1.000000,203.979691 1.000000,181.958511 1.000000,159.468658 
z"/>
<path fill="#000000" opacity="1.000000" stroke="none" 
	d="
M3.166849,62.999722 
	C2.697099,64.791130 2.227350,66.582535 1.378800,68.186966 
	C1.000000,45.733791 1.000000,23.467585 1.000000,1.000000 
	C27.020548,1.000000 53.041615,1.000000 79.531342,1.000000 
	C79.213036,1.661292 78.454254,2.858475 77.634773,2.901582 
	C68.730820,3.369953 59.810173,3.527712 50.907948,4.020690 
	C31.377443,5.102231 15.097703,11.838369 8.009754,34.768562 
	C6.669988,42.000496 5.418487,48.499008 4.081763,55.396141 
	C3.719976,58.196411 3.443413,60.598068 3.166849,62.999722 
z"/>
<path fill="#000000" opacity="1.000000" stroke="none" 
	d="
M318.901794,166.432007 
	C319.326752,164.856613 319.819824,163.721405 320.656433,162.793106 
	C321.000000,183.936005 321.000000,204.871994 321.000000,226.000000 
	C294.312744,226.000000 267.625031,226.000000 240.468658,226.000000 
	C240.817795,225.332947 241.604706,224.131073 242.458145,224.081818 
	C250.706665,223.605850 258.963623,223.146942 267.223358,223.017853 
	C295.882660,222.569855 311.036469,211.556885 316.906464,183.435333 
	C318.039520,178.007233 318.304535,172.397919 318.901794,166.432007 
z"/>
<path fill="#000000" opacity="1.000000" stroke="none" 
	d="
M321.000000,65.531342 
	C320.381561,65.207924 319.763153,64.415848 319.055115,62.871246 
	C318.921448,59.744938 318.877350,57.371147 318.742340,54.604877 
	C317.141602,47.796539 315.631775,41.380680 314.121979,34.964825 
	C310.268402,17.399731 296.023376,6.772964 279.673218,5.098578 
	C267.911163,3.894051 256.049194,3.673847 244.236420,2.939566 
	C243.372223,2.885848 242.545944,2.222485 241.851013,1.421278 
	C268.253082,1.000000 294.506165,1.000000 321.000000,1.000000 
	C321.000000,22.353624 321.000000,43.708153 321.000000,65.531342 
z"/>
<path fill="#FFFDFD" opacity="1.000000" stroke="none" 
	d="
M140.010437,72.013863 
	C140.561035,72.185188 141.111649,72.356514 141.910461,73.100166 
	C143.669312,74.931061 145.081070,76.337219 146.705795,77.425453 
	C163.678192,88.793579 180.697968,100.090996 197.663391,111.469444 
	C199.563400,112.743752 201.209030,114.397324 202.972626,115.875008 
	C197.019943,119.008629 191.067276,122.142258 184.909073,125.570496 
	C167.787521,134.509186 150.873184,143.156570 133.952728,151.791977 
	C132.354721,152.607513 130.718369,153.347885 128.105698,154.599319 
	C128.105698,145.248718 128.105698,136.585968 128.016312,127.462090 
	C127.985718,119.641823 128.044510,112.282692 128.014206,104.462479 
	C127.983696,97.641861 128.042313,91.282318 128.012299,84.461754 
	C127.983078,79.638809 128.042465,75.276894 128.012848,70.457672 
	C128.090515,68.749634 128.257187,67.498886 128.509171,65.608009 
	C131.684509,67.482468 134.516632,69.154320 137.697296,70.846909 
	C138.045853,70.867653 137.854706,70.975594 138.124207,71.255531 
	C138.932602,71.694931 139.471527,71.854393 140.010437,72.013863 
z"/>
<path fill="#DD2825" opacity="1.000000" stroke="none" 
	d="
M313.645477,34.972527 
	C315.631775,41.380680 317.141602,47.796539 318.284485,54.605484 
	C213.334061,54.998222 108.750526,54.997871 4.166986,54.997520 
	C5.418487,48.499008 6.669988,42.000496 8.044366,35.183708 
	C15.321532,34.910286 22.475822,34.993958 29.630112,34.994125 
	C124.143066,34.996346 218.656021,34.986824 313.645477,34.972527 
z"/>
<path fill="#E9DDDD" opacity="1.000000" stroke="none" 
	d="
M203.320038,115.834656 
	C201.209030,114.397324 199.563400,112.743752 197.663391,111.469444 
	C180.697968,100.090996 163.678192,88.793579 146.705795,77.425453 
	C145.081070,76.337219 143.669312,74.931061 142.066528,73.347137 
	C146.062744,75.018616 150.151077,77.015450 154.597778,79.072090 
	C161.069321,82.382812 167.182510,85.633720 173.629425,88.996826 
	C180.464462,92.489021 186.965775,95.869026 193.762787,99.395264 
	C199.548264,102.418922 205.038071,105.296356 210.817154,108.341415 
	C211.867310,109.050217 212.628159,109.591393 213.759171,110.395836 
	C210.143188,112.330162 206.905319,114.062233 203.320038,115.834656 
z"/>
<path fill="#DB2724" opacity="1.000000" stroke="none" 
	d="
M4.081763,55.396141 
	C108.750526,54.997871 213.334061,54.998222 318.375427,54.997967 
	C318.877350,57.371147 318.921448,59.744938 318.899536,62.559242 
	C213.916519,62.999790 108.999504,62.999821 3.624669,62.999786 
	C3.443413,60.598068 3.719976,58.196411 4.081763,55.396141 
z"/>
<path fill="#E9DDDD" opacity="1.000000" stroke="none" 
	d="
M139.875336,71.728027 
	C139.471527,71.854393 138.932602,71.694931 138.171539,71.354553 
	C138.546341,71.263153 139.143280,71.352669 139.875336,71.728027 
z"/>
</svg>